<?xml version="1.0" encoding="UTF-8"?>
<svg version="1.1" viewBox="0 0 980 980" width="980" height="980" xmlns="http://www.w3.org/2000/svg">
<path transform="translate(475,76)" d="m0 0h30l29 2 29 4 28 6 31 9 24 9 25 11 23 12 23 14 17 12 13 10 13 11 8 7 12 11 14 14 7 8 12 14 15 20 12 18 13 22 12 23 11 26 9 25 8 29 6 30 3 23 2 29v31l-2 28-4 28-6 29-7 24-7 21-11 26-8 17-13 23-10 16-12 17-11 14-9 11-24 26-8 7-7 7-11 9-15 12-17 12-17 11-23 13-27 13-23 9-11 4h-2l-2-29-11-211v-8l8-3 19-7 16-9 13-10 10-9 9-11 7-10 3-13 2-25v-29l-2-44-5-65-8-78-8-66v-6h-19v278h-26v-278h-29v278h-26v-278h-27v278h-26v-278l-25 1-8 66-8 76-5 62-2 34v62l2 16 4 12 13 16 10 10 15 11 16 9 19 7 7 2v13l-13 251-1 2-11 2-31 2h-20l-31-2-28-4-20-4-2-1-1-3-6-150-1-255-1-312-2-10-3-2-6 1-9 6-10 10-11 16-9 17-13 31-11 29-12 36-12 43-9 41-6 38-3 28-1 14-1 73v116l4 13 7 10 11 9 14 10 11 11 6 10 5 15 2 14v22l-5 95-5-1-25-12-18-10-23-15-11-8-13-10-11-9-13-12-12-11-15-16-9-11-10-12-13-18-11-17-12-21-14-28-11-28-9-28-7-29-5-31-2-19-1-17v-31l2-29 4-29 7-32 9-30 11-28 12-26 11-20 15-24 12-16 10-13 12-14 15-16 11-11 8-7 15-13 16-12 16-11 21-13 24-13 27-12 30-11 29-8 30-6 34-4z" fill="#020202"/>
<path transform="translate(459)" d="m0 0h62l32 3 36 6 26 6 30 9 25 9 23 10 25 12 25 14 33 22 17 13 11 9 14 12 15 14 17 17 7 8 13 15 13 17 11 15 13 20 9 15 13 24 10 21 11 27 12 36 8 32 5 27 4 33 1 13v62l-3 32-6 36-6 26-9 30-11 30-13 29-13 25-10 17-18 27-14 19-11 13-9 11-7 7-7 8-19 19-8 7-15 13-17 13-18 13-17 11-17 10-22 12-30 14-29 11-29 9-28 7-27 5-33 4-13 1h-62l-32-3-36-6-26-6-30-9-30-11-33-15-28-15-21-13-16-11-19-14-13-11-11-9-7-7-8-7-18-18-7-8-9-10-11-14-13-17-18-27-14-24-13-25-13-30-12-34-9-33-7-36-4-33-1-13v-62l3-32 6-36 6-26 9-30 9-25 13-30 10-20 14-24 10-16 11-16 13-17 9-11 12-14 14-15 17-17 8-7 15-13 17-13 15-11 20-13 17-10 22-12 21-10 27-11 36-12 32-8 27-5 33-4zm10 37-26 2-29 4-34 7-31 9-30 11-24 11-16 8-20 11-19 12-17 12-13 10-11 9-14 12-9 9-8 7-12 13-11 12-11 14-14 18-15 23-14 24-15 30-11 27-11 33-7 28-5 27-4 33-1 16v42l2 26 5 35 7 32 9 30 11 29 9 20 13 26 12 20 14 21 14 19 11 13 9 11 13 13 6 7 8 7 8 8 11 9 13 11 18 13 18 12 20 12 23 12 21 10 26 10 24 8 31 8 27 5 33 4 16 1h42l27-2 34-5 32-7 30-9 27-10 24-11 16-8 20-11 19-12 17-12 13-10 11-9 14-12 10-10 8-7 9-10 13-14 11-14 14-18 15-23 14-24 15-30 11-27 10-30 7-27 6-31 3-23 2-26v-42l-3-35-6-36-7-29-9-29-11-28-13-28-13-23-11-18-11-16-13-17-9-11-12-14-9-9-7-8-13-12-12-11-14-11-18-14-23-15-24-14-17-9-32-14-31-11-29-8-36-7-33-4-16-1z" fill="#080808"/>
</svg>
